<?xml version="1.0" encoding="UTF-8" standalone="no"?>
<svg width="32px" height="40px" viewBox="0 0 32 40" version="1.1" xmlns="http://www.w3.org/2000/svg" xmlns:xlink="http://www.w3.org/1999/xlink" xmlns:sketch="http://www.bohemiancoding.com/sketch/ns">
    <title>logo</title>
    <description>Created with Sketch (http://www.bohemiancoding.com/sketch)</description>
    <defs></defs>
    <g id="Page-1" stroke="none" stroke-width="1" fill="none" fill-rule="evenodd" sketch:type="MSPage">
        <g id="Logo" sketch:type="MSLayerGroup" fill="#6E5BAA">
            <path d="M30,0 L2,0 C0.896,0 0,0.896 0,2 L0,38 C0,39.104 0.896,40 2,40 L30,40 C31.104,40 32,39.104 32,38 L32,2 C32,0.896 31.104,0 30,0 L30,0 Z M7,34 L7.11529238,26 L12,30.0009467 L7,34 L7,34 Z M25,34 L19.9497412,34 L19.9497412,19.2804274 C19.9497412,19.2804274 19.9908165,15.7389136 7.11621306,20.7295459 C7.09317081,20.7933749 7,6.02593054 7,6.02593054 L11.9370513,6 L12.0622808,15.8276759 C12.0622808,15.8276759 25,11.2080499 25,19.3312912 L25,34 L25,34 Z M22.2791592,12 L18,12 C19.5404204,10.1051634 20.9347748,6 20.9347748,6 L26,6 C26,6 24.6018018,9.15774514 22.2791592,12 L22.2791592,12 Z" id="Shape" sketch:type="MSShapeGroup"></path>
        </g>
    </g>
</svg>
